<?xml version="1.0" encoding="UTF-8"?>
<!DOCTYPE svg PUBLIC "-//W3C//DTD SVG 1.1//EN" "http://www.w3.org/Graphics/SVG/1.1/DTD/svg11.dtd">
<!-- Creator: CorelDRAW 2021.5 -->
<svg xmlns="http://www.w3.org/2000/svg" xml:space="preserve" width="2.76045in" height="2.75165in" version="1.1" style="shape-rendering:geometricPrecision; text-rendering:geometricPrecision; image-rendering:optimizeQuality; fill-rule:evenodd; clip-rule:evenodd"
viewBox="0 0 254.63 253.82"
 xmlns:xlink="http://www.w3.org/1999/xlink"
 xmlns:xodm="http://www.corel.com/coreldraw/odm/2003">
 <defs>
  <style type="text/css">
   <![CDATA[
    .fil0 {fill:white}
   ]]>
  </style>
 </defs>
 <g id="Layer_x0020_1">
  <metadata id="CorelCorpID_0Corel-Layer"/>
  <path class="fil0" d="M44.86 196.89c1.03,0 1.98,-0.55 2.5,-1.44 10.29,-17.81 20.57,-35.63 30.86,-53.45 0.51,-0.89 0.51,-1.99 0,-2.88l-8.76 -15.18 -5.23 -9.05c-1.11,-1.92 -3.88,-1.92 -4.99,0l-29.52 51.14c-0.51,0.89 -1.47,1.44 -2.5,1.44l-24.32 0c-1.59,0 -2.88,1.29 -2.88,2.88l0 23.66c0,1.59 1.29,2.88 2.88,2.88l41.97 0z"/>
  <path class="fil0" d="M206.95 195.45c0.51,0.89 1.47,1.44 2.5,1.44l42.3 0c1.59,0 2.88,-1.29 2.88,-2.88l0 -23.66c0,-1.59 -1.29,-2.88 -2.88,-2.88l-24.51 0c-1.03,0 -1.98,-0.55 -2.49,-1.44l-16.41 -28.42 -46.29 -80.19c-10.77,-18.66 -21.55,-37.32 -32.32,-55.98 -1.11,-1.92 -3.88,-1.92 -4.99,0 -14.99,25.96 -29.98,51.93 -44.97,77.9 -0.52,0.89 -0.52,1.99 0,2.88l12.84 22.24 3.65 6.32c10.91,18.9 21.82,37.8 32.73,56.69 5.21,9.02 13.77,21.32 14.1,29.42 0.01,0.35 0.02,0.71 0.02,1.07 0,22.02 -25.14,33.61 -41.95,20.81 -1.14,-0.86 -2.74,-0.73 -3.74,0.29l-4.8 4.85 -12.12 12.26c-1.19,1.21 -1.07,3.16 0.22,4.26 3.6,3.08 7.6,5.7 11.9,7.79 24.35,11.82 53.57,4.38 69.44,-17.31 12.39,-16.93 14.21,-39.44 4.8,-58.08 -0.03,-0.07 -0.07,-0.14 -0.11,-0.2 -9.27,-16.06 -18.53,-32.09 -27.84,-48.21l-24.43 -42.31c-0.51,-0.89 -0.51,-1.99 0,-2.88l10.2 -17.66c1.11,-1.92 3.88,-1.92 4.99,0l9.24 16.01c22.69,39.29 45.38,78.59 68.06,117.88z"/>
 </g>
</svg>
